<?xml version="1.0" encoding="UTF-8"?>
<svg xmlns="http://www.w3.org/2000/svg" xmlns:xlink="http://www.w3.org/1999/xlink" width="32px" height="32px" viewBox="0 0 32 32" version="1.1">
<g id="surface1">
<path style=" stroke:none;fill-rule:nonzero;fill:rgb(0%,67.058825%,50.196081%);fill-opacity:1;" d="M 4.992188 3.007812 C 6.324219 3.007812 7.652344 3.007812 9.023438 3.007812 C 9.023438 3.347656 9.023438 3.683594 9.023438 4.03125 C 9.679688 4.03125 10.332031 4.03125 11.007812 4.03125 C 11.007812 4.347656 11.007812 4.664062 11.007812 4.992188 C 11.664062 4.992188 12.316406 4.992188 12.992188 4.992188 C 12.992188 5.328125 12.992188 5.667969 12.992188 6.015625 C 13.328125 6.015625 13.667969 6.015625 14.015625 6.015625 C 14.015625 6.332031 14.015625 6.648438 14.015625 6.976562 C 14.671875 6.976562 15.324219 6.976562 16 6.976562 C 16 7.3125 16 7.652344 16 8 C 16.65625 8 17.308594 8 17.984375 8 C 17.984375 8.339844 17.984375 8.675781 17.984375 9.023438 C 18.660156 9.023438 19.335938 9.023438 20.03125 9.023438 C 20.03125 9.339844 20.03125 9.65625 20.03125 9.984375 C 20.6875 9.984375 21.339844 9.984375 22.015625 9.984375 C 22.015625 10.320312 22.015625 10.660156 22.015625 11.007812 C 22.332031 11.007812 22.648438 11.007812 22.976562 11.007812 C 22.976562 11.347656 22.976562 11.683594 22.976562 12.03125 C 23.652344 12.03125 24.328125 12.03125 25.023438 12.03125 C 25.023438 12.347656 25.023438 12.664062 25.023438 12.992188 C 25.679688 12.992188 26.332031 12.992188 27.007812 12.992188 C 27.007812 13.328125 27.007812 13.667969 27.007812 14.015625 C 27.347656 14.015625 27.683594 14.015625 28.03125 14.015625 C 28.03125 14.332031 28.03125 14.648438 28.03125 14.976562 C 28.347656 14.976562 28.664062 14.976562 28.992188 14.976562 C 28.992188 15.652344 28.992188 16.328125 28.992188 17.023438 C 28.675781 17.023438 28.359375 17.023438 28.03125 17.023438 C 28.03125 17.339844 28.03125 17.65625 28.03125 17.984375 C 27.695312 17.984375 27.355469 17.984375 27.007812 17.984375 C 27.007812 18.320312 27.007812 18.660156 27.007812 19.007812 C 26.351562 19.007812 25.699219 19.007812 25.023438 19.007812 C 25.023438 19.347656 25.023438 19.683594 25.023438 20.03125 C 24.6875 20.03125 24.347656 20.03125 24 20.03125 C 24 20.347656 24 20.664062 24 20.992188 C 23.34375 20.992188 22.691406 20.992188 22.015625 20.992188 C 22.015625 21.328125 22.015625 21.667969 22.015625 22.015625 C 21.359375 22.015625 20.707031 22.015625 20.03125 22.015625 C 20.03125 22.332031 20.03125 22.648438 20.03125 22.976562 C 19.355469 22.976562 18.679688 22.976562 17.984375 22.976562 C 17.984375 23.3125 17.984375 23.652344 17.984375 24 C 17.328125 24 16.675781 24 16 24 C 16 24.339844 16 24.675781 16 25.023438 C 15.34375 25.023438 14.691406 25.023438 14.015625 25.023438 C 14.015625 25.339844 14.015625 25.65625 14.015625 25.984375 C 13.679688 25.984375 13.339844 25.984375 12.992188 25.984375 C 12.992188 26.320312 12.992188 26.660156 12.992188 27.007812 C 12.335938 27.007812 11.683594 27.007812 11.007812 27.007812 C 11.007812 27.347656 11.007812 27.683594 11.007812 28.03125 C 10.351562 28.03125 9.699219 28.03125 9.023438 28.03125 C 9.023438 28.347656 9.023438 28.664062 9.023438 28.992188 C 7.695312 28.992188 6.363281 28.992188 4.992188 28.992188 C 4.992188 28.675781 4.992188 28.359375 4.992188 28.03125 C 4.675781 28.03125 4.359375 28.03125 4.03125 28.03125 C 4.03125 26.703125 4.03125 25.371094 4.03125 24 C 4.347656 24 4.664062 24 4.992188 24 C 4.992188 22.691406 4.992188 21.382812 4.992188 20.03125 C 5.328125 20.03125 5.667969 20.03125 6.015625 20.03125 C 6.015625 19.039062 6.015625 18.046875 6.015625 17.023438 C 10.304688 17.023438 14.589844 17.023438 19.007812 17.023438 C 19.007812 16.347656 19.007812 15.671875 19.007812 14.976562 C 14.71875 14.976562 10.433594 14.976562 6.015625 14.976562 C 6.015625 14.003906 6.015625 13.03125 6.015625 12.03125 C 5.679688 12.03125 5.339844 12.03125 4.992188 12.03125 C 4.992188 10.703125 4.992188 9.371094 4.992188 8 C 4.675781 8 4.359375 8 4.03125 8 C 4.03125 6.691406 4.03125 5.382812 4.03125 4.03125 C 4.347656 4.03125 4.664062 4.03125 4.992188 4.03125 C 4.992188 3.695312 4.992188 3.355469 4.992188 3.007812 Z M 4.992188 3.007812 "/>
<path style=" stroke:none;fill-rule:nonzero;fill:rgb(0%,66.666669%,66.666669%);fill-opacity:1;" d="M 12.03125 25.984375 C 12.347656 25.984375 12.664062 25.984375 12.992188 25.984375 C 12.992188 26.320312 12.992188 26.660156 12.992188 27.007812 C 12.675781 27.007812 12.359375 27.007812 12.03125 27.007812 C 12.03125 26.671875 12.03125 26.332031 12.03125 25.984375 Z M 12.03125 25.984375 "/>
</g>
</svg>
